<svg width="102" height="75" viewBox="0 0 102 75" fill="none" xmlns="http://www.w3.org/2000/svg">
<rect x="0.652344" y="52.6187" width="29.5085" height="21.8814" fill="#B5B5B5" stroke="#2E2E2E"/>
<line x1="10.8203" y1="52.1187" x2="10.8203" y2="63.5593" stroke="#2E2E2E"/>
<line x1="19.7188" y1="52.1187" x2="19.7188" y2="63.5593" stroke="#2E2E2E"/>
<mask id="path-4-inside-1_759_6026" fill="white">
<path fill-rule="evenodd" clip-rule="evenodd" d="M65.6194 0C45.6108 0 29.3906 16.2202 29.3906 36.2288V75H71.8483C88.4168 75 101.848 61.5685 101.848 45V36.2288C101.848 16.2202 85.6281 0 65.6194 0ZM66.2557 59.7457C78.1906 59.7457 87.8658 50.0705 87.8658 38.1356C87.8658 26.2006 78.1906 16.5254 66.2557 16.5254C54.3207 16.5254 44.6455 26.2006 44.6455 38.1356C44.6455 50.0705 54.3207 59.7457 66.2557 59.7457Z"/>
</mask>
<path fill-rule="evenodd" clip-rule="evenodd" d="M65.6194 0C45.6108 0 29.3906 16.2202 29.3906 36.2288V75H71.8483C88.4168 75 101.848 61.5685 101.848 45V36.2288C101.848 16.2202 85.6281 0 65.6194 0ZM66.2557 59.7457C78.1906 59.7457 87.8658 50.0705 87.8658 38.1356C87.8658 26.2006 78.1906 16.5254 66.2557 16.5254C54.3207 16.5254 44.6455 26.2006 44.6455 38.1356C44.6455 50.0705 54.3207 59.7457 66.2557 59.7457Z" fill="white"/>
<path d="M29.3906 75H28.3906V76H29.3906V75ZM30.3906 36.2288C30.3906 16.7725 46.1631 1 65.6194 1V-1C45.0585 -1 28.3906 15.6679 28.3906 36.2288H30.3906ZM30.3906 75V36.2288H28.3906V75H30.3906ZM71.8483 74H29.3906V76H71.8483V74ZM100.848 45C100.848 61.0163 87.8645 74 71.8483 74V76C88.9691 76 102.848 62.1208 102.848 45H100.848ZM100.848 36.2288V45H102.848V36.2288H100.848ZM65.6194 1C85.0758 1 100.848 16.7725 100.848 36.2288H102.848C102.848 15.6679 86.1803 -1 65.6194 -1V1ZM86.8658 38.1356C86.8658 49.5183 77.6384 58.7457 66.2557 58.7457V60.7457C78.7429 60.7457 88.8658 50.6228 88.8658 38.1356H86.8658ZM66.2557 17.5254C77.6384 17.5254 86.8658 26.7529 86.8658 38.1356H88.8658C88.8658 25.6483 78.7429 15.5254 66.2557 15.5254V17.5254ZM45.6455 38.1356C45.6455 26.7529 54.873 17.5254 66.2557 17.5254V15.5254C53.7684 15.5254 43.6455 25.6483 43.6455 38.1356H45.6455ZM66.2557 58.7457C54.873 58.7457 45.6455 49.5183 45.6455 38.1356H43.6455C43.6455 50.6228 53.7684 60.7457 66.2557 60.7457V58.7457Z" fill="#2E2E2E" mask="url(#path-4-inside-1_759_6026)"/>
<circle cx="65.6198" cy="38.7712" r="9.0339" fill="#B5B5B5" stroke="#2E2E2E"/>
</svg>
