<svg width="24" height="24" viewBox="0 0 24 24" fill="none" xmlns="http://www.w3.org/2000/svg">
<path d="M13.4119 11.9999L19.7119 5.70994C19.9002 5.52164 20.006 5.26624 20.006 4.99994C20.006 4.73364 19.9002 4.47825 19.7119 4.28994C19.5236 4.10164 19.2682 3.99585 19.0019 3.99585C18.7356 3.99585 18.4802 4.10164 18.2919 4.28994L12.0019 10.5899L5.71189 4.28994C5.52359 4.10164 5.26819 3.99585 5.00189 3.99585C4.73559 3.99585 4.4802 4.10164 4.29189 4.28994C4.10359 4.47825 3.9978 4.73364 3.9978 4.99994C3.9978 5.26624 4.10359 5.52164 4.29189 5.70994L10.5919 11.9999L4.29189 18.2899C4.19816 18.3829 4.12377 18.4935 4.073 18.6154C4.02223 18.7372 3.99609 18.8679 3.99609 18.9999C3.99609 19.132 4.02223 19.2627 4.073 19.3845C4.12377 19.5064 4.19816 19.617 4.29189 19.7099C4.38486 19.8037 4.49546 19.8781 4.61732 19.9288C4.73917 19.9796 4.86988 20.0057 5.00189 20.0057C5.1339 20.0057 5.26461 19.9796 5.38647 19.9288C5.50833 19.8781 5.61893 19.8037 5.71189 19.7099L12.0019 13.4099L18.2919 19.7099C18.3849 19.8037 18.4955 19.8781 18.6173 19.9288C18.7392 19.9796 18.8699 20.0057 19.0019 20.0057C19.1339 20.0057 19.2646 19.9796 19.3865 19.9288C19.5083 19.8781 19.6189 19.8037 19.7119 19.7099C19.8056 19.617 19.88 19.5064 19.9308 19.3845C19.9816 19.2627 20.0077 19.132 20.0077 18.9999C20.0077 18.8679 19.9816 18.7372 19.9308 18.6154C19.88 18.4935 19.8056 18.3829 19.7119 18.2899L13.4119 11.9999Z" fill="black"/>
</svg>
